<svg width="114" height="92" viewBox="0 0 114 92" fill="none" xmlns="http://www.w3.org/2000/svg">
<g filter="url(#filter0_d)">
<rect x="4" width="106" height="84" rx="25" fill="white"/>
<path d="M26.2282 68.8488V68.0285H22V68.8488H23.6575V74.0495H24.5708V68.8488H26.2282Z" fill="#333333"/>
<path d="M31.8735 74.0495V68.0285H30.9602V70.5993H28.5163V68.0285H27.603V74.0495H28.5163V71.4196H30.9602V74.0495H31.8735Z" fill="#333333"/>
<path d="M37.6358 74.0495V73.2292H34.7014V71.4196H37.2045V70.6077H34.7014V68.8488H37.6358V68.0285H33.7881V74.0495H37.6358Z" fill="#333333"/>
<path d="M45.7351 71.7155V70.7938H43.5364V71.5718H44.8218V71.91C44.8218 72.1073 44.7993 72.2821 44.7542 72.4343C44.7091 72.5865 44.6301 72.7275 44.5174 72.8571C44.399 72.9925 44.2552 73.0967 44.0861 73.17C43.917 73.2433 43.7338 73.28 43.5364 73.28C43.356 73.28 43.1897 73.249 43.0375 73.187C42.8853 73.1193 42.7556 73.0291 42.6485 72.9163C42.5752 72.8374 42.5132 72.7529 42.4625 72.6627C42.4174 72.5668 42.3807 72.4512 42.3525 72.3159C42.33 72.175 42.3131 72.003 42.3018 71.8001C42.2905 71.5971 42.2849 71.3434 42.2849 71.039C42.2849 70.7346 42.2905 70.4837 42.3018 70.2864C42.3131 70.0834 42.33 69.9143 42.3525 69.779C42.3807 69.6381 42.4174 69.5225 42.4625 69.4323C42.5132 69.3365 42.5752 69.2491 42.6485 69.1701C42.7556 69.0574 42.8853 68.9672 43.0375 68.8995C43.1897 68.8319 43.356 68.7981 43.5364 68.7981C43.8747 68.7981 44.1509 68.8911 44.3652 69.0771C44.5794 69.2575 44.726 69.514 44.8049 69.8467H45.7267C45.6816 69.5873 45.6026 69.3449 45.4899 69.1194C45.3771 68.8939 45.2277 68.6966 45.0417 68.5275C44.8613 68.3583 44.6442 68.2258 44.3905 68.13C44.1425 68.0285 43.8578 67.9778 43.5364 67.9778C43.2151 67.9778 42.9219 68.0342 42.657 68.1469C42.3976 68.254 42.1637 68.4119 41.9551 68.6205C41.8085 68.7671 41.6958 68.9221 41.6168 69.0856C41.5379 69.2491 41.4787 69.4267 41.4392 69.6183C41.4054 69.81 41.3857 70.0242 41.38 70.261C41.3744 70.4922 41.3716 70.7515 41.3716 71.039C41.3716 71.3265 41.3744 71.5887 41.38 71.8255C41.3857 72.0566 41.4054 72.268 41.4392 72.4597C41.4787 72.6514 41.5379 72.829 41.6168 72.9925C41.6958 73.1559 41.8085 73.311 41.9551 73.4576C42.1637 73.6661 42.4005 73.8268 42.6654 73.9396C42.9304 74.0467 43.2207 74.1002 43.5364 74.1002C43.8578 74.1002 44.1566 74.0467 44.4328 73.9396C44.7091 73.8325 44.9628 73.6577 45.1939 73.4153C45.3912 73.201 45.5293 72.9614 45.6083 72.6965C45.6928 72.4315 45.7351 72.1045 45.7351 71.7155Z" fill="#333333"/>
<path d="M51.2353 74.0495V73.2292H48.3347V68.0285H47.4214V74.0495H51.2353Z" fill="#333333"/>
<path d="M57.0467 74.0495L54.8396 68.0285H54.1039L51.8968 74.0495H52.8692L53.2836 72.8402H55.6599L56.0742 74.0495H57.0467ZM55.4062 72.0622H53.5542L54.4929 69.39L55.4062 72.0622Z" fill="#333333"/>
<path d="M62.0022 72.3328C62.0022 72.0735 61.9599 71.8396 61.8754 71.631C61.7964 71.4224 61.6752 71.2448 61.5117 71.0982C61.3821 70.9855 61.2327 70.8953 61.0635 70.8276C60.8944 70.7543 60.6689 70.6951 60.387 70.65L59.702 70.5485C59.4089 70.5034 59.1834 70.4104 59.0255 70.2695C58.9466 70.1962 58.8874 70.1144 58.8479 70.0242C58.8141 69.9284 58.7972 69.8241 58.7972 69.7114C58.7972 69.4407 58.8902 69.2181 59.0763 69.0433C59.2679 68.8629 59.5414 68.7727 59.8965 68.7727C60.1502 68.7727 60.3842 68.8065 60.5984 68.8742C60.8183 68.9362 61.0213 69.0574 61.2073 69.2378L61.7908 68.6628C61.5315 68.4203 61.2552 68.2456 60.9621 68.1385C60.6689 68.0313 60.3222 67.9778 59.9219 67.9778C59.6062 67.9778 59.3243 68.0201 59.0763 68.1046C58.8282 68.1892 58.6168 68.3104 58.442 68.4683C58.2729 68.6261 58.1404 68.815 58.0446 69.0348C57.9544 69.2491 57.9093 69.4858 57.9093 69.7452C57.9093 70.2357 58.0559 70.619 58.349 70.8953C58.6196 71.1489 59.0002 71.3096 59.4906 71.3773L60.201 71.4787C60.3814 71.5069 60.5167 71.5379 60.6069 71.5718C60.6971 71.6056 60.7817 71.6592 60.8606 71.7324C61.0184 71.8734 61.0974 72.082 61.0974 72.3582C61.0974 72.6514 60.9874 72.8797 60.7676 73.0432C60.5533 73.201 60.2489 73.28 59.8543 73.28C59.5442 73.28 59.2651 73.2405 59.0171 73.1616C58.769 73.077 58.5351 72.9248 58.3152 72.7049L57.7063 73.3053C57.9938 73.5985 58.3067 73.8043 58.645 73.9227C58.9832 74.0411 59.3807 74.1002 59.8373 74.1002C60.1531 74.1002 60.4434 74.0608 60.7084 73.9819C60.9733 73.9029 61.2017 73.7874 61.3933 73.6351C61.585 73.4829 61.7344 73.2969 61.8415 73.077C61.9486 72.8571 62.0022 72.6091 62.0022 72.3328Z" fill="#333333"/>
<path d="M67.2458 72.3328C67.2458 72.0735 67.2036 71.8396 67.119 71.631C67.0401 71.4224 66.9189 71.2448 66.7554 71.0982C66.6257 70.9855 66.4763 70.8953 66.3072 70.8276C66.1381 70.7543 65.9125 70.6951 65.6307 70.65L64.9457 70.5485C64.6525 70.5034 64.427 70.4104 64.2692 70.2695C64.1903 70.1962 64.1311 70.1144 64.0916 70.0242C64.0578 69.9284 64.0409 69.8241 64.0409 69.7114C64.0409 69.4407 64.1339 69.2181 64.3199 69.0433C64.5116 68.8629 64.785 68.7727 65.1402 68.7727C65.3939 68.7727 65.6278 68.8065 65.8421 68.8742C66.0619 68.9362 66.2649 69.0574 66.4509 69.2378L67.0344 68.6628C66.7751 68.4203 66.4989 68.2456 66.2057 68.1385C65.9125 68.0313 65.5658 67.9778 65.1656 67.9778C64.8499 67.9778 64.568 68.0201 64.3199 68.1046C64.0719 68.1892 63.8605 68.3104 63.6857 68.4683C63.5166 68.6261 63.3841 68.815 63.2882 69.0348C63.198 69.2491 63.1529 69.4858 63.1529 69.7452C63.1529 70.2357 63.2995 70.619 63.5927 70.8953C63.8633 71.1489 64.2438 71.3096 64.7343 71.3773L65.4446 71.4787C65.625 71.5069 65.7603 71.5379 65.8505 71.5718C65.9407 71.6056 66.0253 71.6592 66.1042 71.7324C66.2621 71.8734 66.341 72.082 66.341 72.3582C66.341 72.6514 66.2311 72.8797 66.0112 73.0432C65.797 73.201 65.4925 73.28 65.0979 73.28C64.7878 73.28 64.5088 73.2405 64.2607 73.1616C64.0127 73.077 63.7787 72.9248 63.5588 72.7049L62.95 73.3053C63.2375 73.5985 63.5504 73.8043 63.8886 73.9227C64.2269 74.0411 64.6243 74.1002 65.081 74.1002C65.3967 74.1002 65.687 74.0608 65.952 73.9819C66.217 73.9029 66.4453 73.7874 66.637 73.6351C66.8287 73.4829 66.9781 73.2969 67.0852 73.077C67.1923 72.8571 67.2458 72.6091 67.2458 72.3328Z" fill="#333333"/>
<path d="M75.4493 74.0495V68.0285H74.536V70.5993H72.092V68.0285H71.1788V74.0495H72.092V71.4196H74.536V74.0495H75.4493Z" fill="#333333"/>
<path d="M81.5921 72.02V68.0285H80.6788V71.9777C80.6788 72.3836 80.5632 72.7021 80.3321 72.9333C80.1066 73.1644 79.8049 73.28 79.4272 73.28C79.0495 73.28 78.7479 73.1644 78.5224 72.9333C78.2969 72.7021 78.1841 72.3836 78.1841 71.9777V68.0285H77.2708V72.02C77.2708 72.33 77.3244 72.6147 77.4315 72.8741C77.5443 73.1278 77.6965 73.3448 77.8881 73.5252C78.0798 73.7056 78.3082 73.8466 78.5731 73.948C78.8381 74.0495 79.1228 74.1002 79.4272 74.1002C79.7317 74.1002 80.0163 74.0495 80.2813 73.948C80.5463 73.8466 80.7746 73.7056 80.9663 73.5252C81.1636 73.3448 81.3158 73.1278 81.4229 72.8741C81.5357 72.6147 81.5921 72.33 81.5921 72.02Z" fill="#333333"/>
<path d="M87.104 68.8488V68.0285H82.8758V68.8488H84.5333V74.0495H85.4466V68.8488H87.104Z" fill="#333333"/>
<path d="M92.2419 72.3328C92.2419 72.0735 92.1996 71.8396 92.115 71.631C92.0361 71.4224 91.9149 71.2448 91.7514 71.0982C91.6218 70.9855 91.4724 70.8953 91.3032 70.8276C91.1341 70.7543 90.9086 70.6951 90.6267 70.65L89.9417 70.5485C89.6486 70.5034 89.4231 70.4104 89.2652 70.2695C89.1863 70.1962 89.1271 70.1144 89.0876 70.0242C89.0538 69.9284 89.0369 69.8241 89.0369 69.7114C89.0369 69.4407 89.1299 69.2181 89.316 69.0433C89.5076 68.8629 89.7811 68.7727 90.1362 68.7727C90.3899 68.7727 90.6239 68.8065 90.8381 68.8742C91.058 68.9362 91.2609 69.0574 91.447 69.2378L92.0305 68.6628C91.7711 68.4203 91.4949 68.2456 91.2018 68.1385C90.9086 68.0313 90.5619 67.9778 90.1616 67.9778C89.8459 67.9778 89.564 68.0201 89.316 68.1046C89.0679 68.1892 88.8565 68.3104 88.6817 68.4683C88.5126 68.6261 88.3801 68.815 88.2843 69.0348C88.1941 69.2491 88.149 69.4858 88.149 69.7452C88.149 70.2357 88.2956 70.619 88.5887 70.8953C88.8593 71.1489 89.2399 71.3096 89.7303 71.3773L90.4407 71.4787C90.6211 71.5069 90.7564 71.5379 90.8466 71.5718C90.9368 71.6056 91.0213 71.6592 91.1003 71.7324C91.2581 71.8734 91.3371 72.082 91.3371 72.3582C91.3371 72.6514 91.2271 72.8797 91.0072 73.0432C90.793 73.201 90.4886 73.28 90.094 73.28C89.7839 73.28 89.5048 73.2405 89.2568 73.1616C89.0087 73.077 88.7748 72.9248 88.5549 72.7049L87.946 73.3053C88.2335 73.5985 88.5464 73.8043 88.8847 73.9227C89.2229 74.0411 89.6204 74.1002 90.077 74.1002C90.3928 74.1002 90.6831 74.0608 90.9481 73.9819C91.213 73.9029 91.4413 73.7874 91.633 73.6351C91.8247 73.4829 91.9741 73.2969 92.0812 73.077C92.1883 72.8571 92.2419 72.6091 92.2419 72.3328Z" fill="#333333"/>
<path fill-rule="evenodd" clip-rule="evenodd" d="M59.7281 54.1436L91.4795 58.9608V30.4259L59.0484 14.0208L38.895 9.83951L22.7872 22.8923V58.1202L59.7281 54.1436ZM22.0066 58.9893V22.5202L38.6911 9L59.3084 13.2775L92.2601 29.946V59.8687L59.711 54.9305L22.0066 58.9893Z" fill="#333333"/>
<path fill-rule="evenodd" clip-rule="evenodd" d="M88.6904 33.2088L82.1855 39.9739L81.6228 39.4329L88.1278 32.6677L88.6904 33.2088Z" fill="#333333"/>
<path fill-rule="evenodd" clip-rule="evenodd" d="M70.6941 41.7363L76.4184 46.1597L75.9412 46.7774L70.2168 42.354L70.6941 41.7363Z" fill="#333333"/>
<path fill-rule="evenodd" clip-rule="evenodd" d="M81.3884 58.1775L81.3884 17.1963L82.169 17.1963L82.169 58.1775L81.3884 58.1775Z" fill="#333333"/>
<path fill-rule="evenodd" clip-rule="evenodd" d="M75.7134 35.8202L75.7134 10.0408L76.494 10.0408L76.494 35.8202L75.7134 35.8202Z" fill="#333333"/>
<path fill-rule="evenodd" clip-rule="evenodd" d="M75.7134 63.9019L75.7134 33.0684L76.494 33.0684L76.494 63.9019L75.7134 63.9019Z" fill="#333333"/>
<path fill-rule="evenodd" clip-rule="evenodd" d="M89.45 36.9713H85.0266V36.1907H89.45V36.9713Z" fill="#333333"/>
<path fill-rule="evenodd" clip-rule="evenodd" d="M38.3989 56.7465V9.52051H39.1795V56.7465H38.3989Z" fill="#333333"/>
<path fill-rule="evenodd" clip-rule="evenodd" d="M58.9546 54.6648V13.6836H59.7352V54.6648H58.9546Z" fill="#333333"/>
<rect x="4.5" y="0.5" width="105" height="83" rx="24.5" stroke="black" stroke-linecap="round" stroke-linejoin="round"/>
</g>
<defs>
<filter id="filter0_d" x="0" y="0" width="114" height="92" filterUnits="userSpaceOnUse" color-interpolation-filters="sRGB">
<feFlood flood-opacity="0" result="BackgroundImageFix"/>
<feColorMatrix in="SourceAlpha" type="matrix" values="0 0 0 0 0 0 0 0 0 0 0 0 0 0 0 0 0 0 127 0" result="hardAlpha"/>
<feOffset dy="4"/>
<feGaussianBlur stdDeviation="2"/>
<feComposite in2="hardAlpha" operator="out"/>
<feColorMatrix type="matrix" values="0 0 0 0 0 0 0 0 0 0 0 0 0 0 0 0 0 0 0.25 0"/>
<feBlend mode="normal" in2="BackgroundImageFix" result="effect1_dropShadow"/>
<feBlend mode="normal" in="SourceGraphic" in2="effect1_dropShadow" result="shape"/>
</filter>
</defs>
</svg>
