<svg width="114" height="92" viewBox="0 0 114 92" fill="none" xmlns="http://www.w3.org/2000/svg">
<g filter="url(#filter0_d)">
<rect x="4" width="106" height="84" rx="25" fill="black"/>
<path fill-rule="evenodd" clip-rule="evenodd" d="M59.7584 59.1436L91.5098 63.9608V35.4259L59.0787 19.0208L38.9253 14.8395L22.8175 27.8923V63.1202L59.7584 59.1436ZM22.0369 63.9893V27.5202L38.7214 14L59.3387 18.2775L92.2904 34.946V64.8687L59.7413 59.9305L22.0369 63.9893Z" fill="white"/>
<path fill-rule="evenodd" clip-rule="evenodd" d="M88.7207 38.2088L82.2158 44.9739L81.6531 44.4329L88.158 37.6677L88.7207 38.2088Z" fill="white"/>
<path fill-rule="evenodd" clip-rule="evenodd" d="M70.7244 46.7363L76.4487 51.1597L75.9714 51.7774L70.2471 47.354L70.7244 46.7363Z" fill="white"/>
<path fill-rule="evenodd" clip-rule="evenodd" d="M81.4187 63.1775L81.4187 22.1963L82.1993 22.1963L82.1993 63.1775L81.4187 63.1775Z" fill="white"/>
<path fill-rule="evenodd" clip-rule="evenodd" d="M75.7437 40.8202L75.7436 15.0408L76.5242 15.0408L76.5243 40.8202L75.7437 40.8202Z" fill="white"/>
<path fill-rule="evenodd" clip-rule="evenodd" d="M75.7436 68.9019L75.7436 38.0684L76.5242 38.0684L76.5242 68.9019L75.7436 68.9019Z" fill="white"/>
<path fill-rule="evenodd" clip-rule="evenodd" d="M89.4803 41.9713H85.0569V41.1907H89.4803V41.9713Z" fill="white"/>
<path fill-rule="evenodd" clip-rule="evenodd" d="M38.4294 61.7465V14.5205H39.21V61.7465H38.4294Z" fill="white"/>
<path fill-rule="evenodd" clip-rule="evenodd" d="M58.9851 59.6648V18.6836H59.7657V59.6648H58.9851Z" fill="white"/>
<rect x="4.5" y="0.5" width="105" height="83" rx="24.5" stroke="white" stroke-linecap="round" stroke-linejoin="round"/>
</g>
<defs>
<filter id="filter0_d" x="0" y="0" width="114" height="92" filterUnits="userSpaceOnUse" color-interpolation-filters="sRGB">
<feFlood flood-opacity="0" result="BackgroundImageFix"/>
<feColorMatrix in="SourceAlpha" type="matrix" values="0 0 0 0 0 0 0 0 0 0 0 0 0 0 0 0 0 0 127 0" result="hardAlpha"/>
<feOffset dy="4"/>
<feGaussianBlur stdDeviation="2"/>
<feComposite in2="hardAlpha" operator="out"/>
<feColorMatrix type="matrix" values="0 0 0 0 0 0 0 0 0 0 0 0 0 0 0 0 0 0 0.25 0"/>
<feBlend mode="normal" in2="BackgroundImageFix" result="effect1_dropShadow"/>
<feBlend mode="normal" in="SourceGraphic" in2="effect1_dropShadow" result="shape"/>
</filter>
</defs>
</svg>
