<svg width="114" height="92" fill="none" xmlns="http://www.w3.org/2000/svg"><g filter="url(#filter0_d)"><rect x="4" width="106" height="84" rx="25" fill="#000"/><path fill-rule="evenodd" clip-rule="evenodd" d="M59.758 59.144L91.51 63.96V35.426L59.079 19.02l-20.154-4.182-16.107 13.053V63.12l36.94-3.976zm-37.721 4.845V27.52L38.72 14l20.618 4.277 32.952 16.67V64.87l-32.549-4.94-37.704 4.058z" fill="#fff"/><path fill-rule="evenodd" clip-rule="evenodd" d="M88.72 38.209l-6.504 6.765-.563-.541 6.505-6.765.563.54zm-17.996 8.527l5.725 4.424-.478.617-5.724-4.423.477-.618z" fill="#fff"/><path fill-rule="evenodd" clip-rule="evenodd" d="M81.419 63.178V22.196h.78v40.981h-.78zM75.744 40.82V15.04h.78v25.78h-.78z" fill="#fff"/><path fill-rule="evenodd" clip-rule="evenodd" d="M75.744 68.902V38.068h.78v30.834h-.78zM89.48 41.971h-4.423v-.78h4.423v.78zM38.43 61.746V14.52h.78v47.227h-.78zm20.555-2.081V18.684h.78v40.98h-.78z" fill="#fff"/><rect x="4.5" y=".5" width="105" height="83" rx="24.5" stroke="#fff" stroke-linecap="round" stroke-linejoin="round"/></g><defs><filter id="filter0_d" x="0" y="0" width="114" height="92" filterUnits="userSpaceOnUse" color-interpolation-filters="sRGB"><feFlood flood-opacity="0" result="BackgroundImageFix"/><feColorMatrix in="SourceAlpha" values="0 0 0 0 0 0 0 0 0 0 0 0 0 0 0 0 0 0 127 0" result="hardAlpha"/><feOffset dy="4"/><feGaussianBlur stdDeviation="2"/><feComposite in2="hardAlpha" operator="out"/><feColorMatrix values="0 0 0 0 0 0 0 0 0 0 0 0 0 0 0 0 0 0 0.25 0"/><feBlend in2="BackgroundImageFix" result="effect1_dropShadow"/><feBlend in="SourceGraphic" in2="effect1_dropShadow" result="shape"/></filter></defs></svg>