<svg width="114" height="92" fill="none" xmlns="http://www.w3.org/2000/svg"><g filter="url(#filter0_d)"><rect x="4" width="106" height="84" rx="25" fill="#fff"/><path d="M26.228 68.849v-.82H22v.82h1.657v5.2h.914v-5.2h1.657zm5.645 5.201v-6.022h-.913V70.6h-2.444v-2.57h-.913v6.02h.913v-2.63h2.444v2.63h.913zm5.763 0v-.82H34.7v-1.81h2.504v-.812H34.7v-1.76h2.935v-.82h-3.848v6.021h3.848zm8.099-2.334v-.922h-2.199v.778h1.286v.338c0 .197-.023.372-.068.524a1.197 1.197 0 01-.668.736c-.169.073-.352.11-.55.11a1.31 1.31 0 01-.498-.093 1.204 1.204 0 01-.575-.524 1.573 1.573 0 01-.11-.347 5.166 5.166 0 01-.051-.516 14.12 14.12 0 01-.017-.761c0-.304.006-.555.017-.753.011-.203.028-.372.05-.507a1.45 1.45 0 01.11-.347c.051-.096.113-.183.186-.262a1.205 1.205 0 01.888-.372c.339 0 .615.093.83.28.213.18.36.436.439.769h.922a2.622 2.622 0 00-.237-.728 2.006 2.006 0 00-1.1-.989 2.24 2.24 0 00-.854-.152c-.32 0-.614.056-.879.169-.26.107-.493.265-.702.474a1.69 1.69 0 00-.338.465 2.28 2.28 0 00-.178.532 4.319 4.319 0 00-.059.643 32.412 32.412 0 000 1.565c.006.23.025.442.06.634.039.191.098.369.177.533.079.163.192.318.338.465.209.208.446.369.71.482.265.107.556.16.871.16.322 0 .62-.053.897-.16a2.1 2.1 0 00.76-.525 1.82 1.82 0 00.415-.719c.085-.264.127-.591.127-.98zm5.5 2.334v-.82h-2.9v-5.202h-.914v6.021h3.814zm5.812 0l-2.207-6.022h-.736l-2.207 6.021h.972l.415-1.209h2.376l.414 1.21h.973zm-1.64-1.988h-1.853l.939-2.672.913 2.672zm6.595.271c0-.26-.042-.493-.127-.702a1.344 1.344 0 00-.363-.533 1.56 1.56 0 00-.449-.27 2.892 2.892 0 00-.676-.178l-.685-.102c-.293-.045-.519-.138-.676-.279a.738.738 0 01-.178-.245.934.934 0 01-.05-.313c0-.27.092-.493.278-.668.192-.18.465-.27.82-.27.254 0 .488.034.702.101.22.062.423.183.61.364l.583-.575a2.441 2.441 0 00-.829-.525 3.03 3.03 0 00-1.04-.16c-.316 0-.598.042-.846.127a1.78 1.78 0 00-.634.363c-.17.158-.302.347-.397.567-.09.214-.136.45-.136.71 0 .49.147.874.44 1.15.27.254.651.415 1.142.482l.71.102c.18.028.316.059.406.093a.77.77 0 01.254.16c.157.141.236.35.236.626 0 .293-.11.522-.33.685-.214.158-.518.237-.913.237-.31 0-.589-.04-.837-.118a1.836 1.836 0 01-.702-.457l-.609.6c.288.293.6.5.939.618.338.118.736.177 1.192.177.316 0 .606-.04.871-.118a2.01 2.01 0 00.685-.347 1.597 1.597 0 00.61-1.302zm5.244 0c0-.26-.042-.493-.127-.702a1.343 1.343 0 00-.364-.533 1.562 1.562 0 00-.448-.27 2.893 2.893 0 00-.676-.178l-.685-.102c-.293-.045-.519-.138-.677-.279a.738.738 0 01-.177-.245.934.934 0 01-.051-.313c0-.27.093-.493.279-.668.192-.18.465-.27.82-.27.254 0 .488.034.702.101.22.062.423.183.609.364l.583-.575a2.44 2.44 0 00-.828-.525 3.03 3.03 0 00-1.04-.16c-.316 0-.598.042-.846.127a1.78 1.78 0 00-.634.363 1.68 1.68 0 00-.398.567c-.09.214-.135.45-.135.71 0 .49.147.874.44 1.15.27.254.65.415 1.141.482l.71.102c.181.028.316.059.406.093a.77.77 0 01.254.16c.158.141.237.35.237.626 0 .293-.11.522-.33.685-.214.158-.518.237-.913.237-.31 0-.59-.04-.837-.118a1.836 1.836 0 01-.702-.457l-.609.6c.287.293.6.5.939.618.338.118.735.177 1.192.177.316 0 .606-.04.871-.118.265-.08.493-.195.685-.347a1.597 1.597 0 00.609-1.302zm8.204 1.717v-6.022h-.914V70.6h-2.444v-2.57h-.913v6.02h.913v-2.63h2.444v2.63h.913zm6.142-2.03v-3.992h-.913v3.95c0 .406-.116.724-.347.955-.225.231-.527.347-.905.347s-.68-.116-.905-.347c-.225-.23-.338-.55-.338-.955v-3.95h-.913v3.992c0 .31.053.595.16.854.113.254.266.47.457.651.192.18.42.322.685.423.265.102.55.152.854.152.305 0 .59-.05.854-.152a2.04 2.04 0 00.685-.423c.198-.18.35-.397.457-.65.113-.26.17-.545.17-.855zm5.512-3.171v-.82h-4.228v.82h1.657v5.2h.914v-5.2h1.657zm5.138 3.484c0-.26-.042-.493-.127-.702a1.343 1.343 0 00-.364-.533 1.56 1.56 0 00-.448-.27 2.892 2.892 0 00-.676-.178l-.685-.102c-.293-.045-.519-.138-.677-.279a.738.738 0 01-.177-.245.934.934 0 01-.051-.313c0-.27.093-.493.279-.668.192-.18.465-.27.82-.27.254 0 .488.034.702.101.22.062.423.183.609.364l.584-.575a2.442 2.442 0 00-.83-.525 3.03 3.03 0 00-1.04-.16 2.6 2.6 0 00-.845.127 1.78 1.78 0 00-.634.363 1.68 1.68 0 00-.398.567c-.09.214-.135.45-.135.71 0 .49.147.874.44 1.15.27.254.65.415 1.141.482l.71.102c.181.028.316.059.407.093.09.034.174.087.253.16.158.141.237.35.237.626 0 .293-.11.522-.33.685-.214.158-.518.237-.913.237-.31 0-.59-.04-.837-.118a1.836 1.836 0 01-.702-.457l-.609.6c.288.293.6.5.939.618.338.118.735.177 1.192.177.316 0 .606-.04.871-.118.265-.08.493-.195.685-.347a1.597 1.597 0 00.609-1.302z" fill="#333"/><path fill-rule="evenodd" clip-rule="evenodd" d="M59.728 54.144L91.48 58.96V30.426L59.047 14.02 38.895 9.84 22.787 22.892V58.12l36.941-3.976zm-37.721 4.845V22.52L38.69 9l20.617 4.277 32.953 16.67V59.87l-32.549-4.94-37.704 4.058z" fill="#333"/><path fill-rule="evenodd" clip-rule="evenodd" d="M88.69 33.209l-6.504 6.765-.563-.541 6.505-6.765.562.54zm-17.996 8.527l5.724 4.424-.477.617-5.724-4.423.477-.618z" fill="#333"/><path fill-rule="evenodd" clip-rule="evenodd" d="M81.388 58.178V17.196h.781v40.981h-.78zM75.713 35.82V10.04h.781v25.78h-.78z" fill="#333"/><path fill-rule="evenodd" clip-rule="evenodd" d="M75.713 63.902V33.068h.781v30.834h-.78zM89.45 36.971h-4.423v-.78h4.423v.78zM38.399 56.746V9.521h.78v47.225h-.78zm20.556-2.081V13.684h.78v40.98h-.78z" fill="#333"/><rect x="4.5" y=".5" width="105" height="83" rx="24.5" stroke="#000" stroke-linecap="round" stroke-linejoin="round"/></g><defs><filter id="filter0_d" x="0" y="0" width="114" height="92" filterUnits="userSpaceOnUse" color-interpolation-filters="sRGB"><feFlood flood-opacity="0" result="BackgroundImageFix"/><feColorMatrix in="SourceAlpha" values="0 0 0 0 0 0 0 0 0 0 0 0 0 0 0 0 0 0 127 0" result="hardAlpha"/><feOffset dy="4"/><feGaussianBlur stdDeviation="2"/><feComposite in2="hardAlpha" operator="out"/><feColorMatrix values="0 0 0 0 0 0 0 0 0 0 0 0 0 0 0 0 0 0 0.25 0"/><feBlend in2="BackgroundImageFix" result="effect1_dropShadow"/><feBlend in="SourceGraphic" in2="effect1_dropShadow" result="shape"/></filter></defs></svg>